<?xml version="1.0" encoding="UTF-8" standalone="no"?>
<svg
   xmlns:dc="http://purl.org/dc/elements/1.1/"
   xmlns:cc="http://creativecommons.org/ns#"
   xmlns:rdf="http://www.w3.org/1999/02/22-rdf-syntax-ns#"
   xmlns:svg="http://www.w3.org/2000/svg"
   xmlns="http://www.w3.org/2000/svg"
   xmlns:sodipodi="http://sodipodi.sourceforge.net/DTD/sodipodi-0.dtd"
   xmlns:inkscape="http://www.inkscape.org/namespaces/inkscape"
   viewBox="0 0 24 24"
   version="1.1"
   id="svg4"
   sodipodi:docname="CameraPlayerCapacity.svg"
   inkscape:version="0.92.5 (2060ec1f9f, 2020-04-08)">
  <metadata
     id="metadata10">
    <rdf:RDF>
      <cc:Work
         rdf:about="">
        <dc:format>image/svg+xml</dc:format>
        <dc:type
           rdf:resource="http://purl.org/dc/dcmitype/StillImage" />
      </cc:Work>
    </rdf:RDF>
  </metadata>
  <defs
     id="defs8" />
  <sodipodi:namedview
     pagecolor="#ffffff"
     bordercolor="#666666"
     borderopacity="1"
     objecttolerance="10"
     gridtolerance="10"
     guidetolerance="10"
     inkscape:pageopacity="0"
     inkscape:pageshadow="2"
     inkscape:window-width="1848"
     inkscape:window-height="1016"
     id="namedview6"
     showgrid="false"
     inkscape:zoom="9.8333333"
     inkscape:cx="-6.4576272"
     inkscape:cy="12"
     inkscape:window-x="72"
     inkscape:window-y="27"
     inkscape:window-maximized="1"
     inkscape:current-layer="svg4" />
  <path
     d="M 17.75 3 C 17.492172 3.0316094 17.23825 3.14375 17 3.28125 L 8.34375 8.28125 C 7.39075 8.83125 7.075 10.047 7.625 11 L 9.625 14.46875 C 10.175 15.42175 11.39075 15.7375 12.34375 15.1875 L 15.09375 13.59375 C 15.243997 14.076807 15.570249 14.469608 16 14.71875 L 16 16.96875 C 16 18.06875 16.9625 19 18.0625 19 L 22 19 L 22 17 L 18 17 L 18 14.71875 C 18.596896 14.372707 19 13.739604 19 13 C 19 12.480091 18.793946 12.011924 18.46875 11.65625 L 21 10.1875 C 21.952 9.6375 22.26875 8.42075 21.71875 7.46875 L 19.71875 4 C 19.30625 3.28525 18.523484 2.9051719 17.75 3 z M 6.46875 12 L 2 12.28125 L 6 19.1875 L 8.46875 15.46875 L 6.46875 12 z"
     id="path2"
     style="fill-opacity:1;fill:#ffcc00" />
</svg>
