<?xml version="1.0" encoding="UTF-8" standalone="no"?>
<svg
   xmlns:dc="http://purl.org/dc/elements/1.1/"
   xmlns:cc="http://creativecommons.org/ns#"
   xmlns:rdf="http://www.w3.org/1999/02/22-rdf-syntax-ns#"
   xmlns:svg="http://www.w3.org/2000/svg"
   xmlns="http://www.w3.org/2000/svg"
   xmlns:sodipodi="http://sodipodi.sourceforge.net/DTD/sodipodi-0.dtd"
   xmlns:inkscape="http://www.inkscape.org/namespaces/inkscape"
   viewBox="0 0 50 50"
   enable-background="new 0 0 50 50"
   version="1.1"
   id="svg4"
   sodipodi:docname="Signpost-595b40b85ba036ed117dcf55.svg"
   inkscape:version="0.92.5 (2060ec1f9f, 2020-04-08)">
  <metadata
     id="metadata10">
    <rdf:RDF>
      <cc:Work
         rdf:about="">
        <dc:format>image/svg+xml</dc:format>
        <dc:type
           rdf:resource="http://purl.org/dc/dcmitype/StillImage" />
      </cc:Work>
    </rdf:RDF>
  </metadata>
  <defs
     id="defs8" />
  <sodipodi:namedview
     pagecolor="#ffffff"
     bordercolor="#666666"
     borderopacity="1"
     objecttolerance="10"
     gridtolerance="10"
     guidetolerance="10"
     inkscape:pageopacity="0"
     inkscape:pageshadow="2"
     inkscape:window-width="1848"
     inkscape:window-height="1016"
     id="namedview6"
     showgrid="false"
     inkscape:zoom="4.72"
     inkscape:cx="25"
     inkscape:cy="25"
     inkscape:window-x="72"
     inkscape:window-y="27"
     inkscape:window-maximized="1"
     inkscape:current-layer="svg4" />
  <path
     d="M 24.5 1 C 23.1 1 22 2.1 22 3.5 L 22 6 L 10 6 C 9.4 6 9 6.4 9 7 L 9 19 C 9 19.6 9.4 20 10 20 L 44 20 C 44.3 20 44.6125 19.89375 44.8125 19.59375 L 49.8125 13.59375 C 50.1125 13.29375 50.1125 12.70625 49.8125 12.40625 L 44.8125 6.40625 C 44.6125 6.10625 44.3 6 44 6 L 27 6 L 27 3.5 C 27 2.1 25.9 1 24.5 1 z M 22 21 L 22 23 L 6 23 C 5.7 23 5.3875 23.10625 5.1875 23.40625 L 0.1875 29.40625 C -0.1125 29.80625 -0.1125 30.2875 0.1875 30.6875 L 5.1875 36.6875 C 5.3875 36.8875 5.7 37 6 37 L 40 37 C 40.6 37 41 36.6 41 36 L 41 24 C 41 23.4 40.6 23 40 23 L 27 23 L 27 21 L 22 21 z M 22 38 L 22 50 L 27 50 L 27 38 L 22 38 z"
     id="path2"
     style="fill:#ffcc00" />
</svg>
