<?xml version="1.0" encoding="UTF-8" standalone="no"?>
<!-- Generator: Adobe Illustrator 16.0.0, SVG Export Plug-In . SVG Version: 6.00 Build 0)  -->

<svg
   xmlns:dc="http://purl.org/dc/elements/1.1/"
   xmlns:cc="http://creativecommons.org/ns#"
   xmlns:rdf="http://www.w3.org/1999/02/22-rdf-syntax-ns#"
   xmlns:svg="http://www.w3.org/2000/svg"
   xmlns="http://www.w3.org/2000/svg"
   xmlns:sodipodi="http://sodipodi.sourceforge.net/DTD/sodipodi-0.dtd"
   xmlns:inkscape="http://www.inkscape.org/namespaces/inkscape"
   version="1.1"
   id="Capa_1"
   x="0px"
   y="0px"
   width="612px"
   height="612px"
   viewBox="0 0 612 612"
   style="enable-background:new 0 0 612 612;"
   xml:space="preserve"
   sodipodi:docname="forbiddensignicon_87875.svg"
   inkscape:version="0.92.5 (2060ec1f9f, 2020-04-08)"><metadata
   id="metadata46"><rdf:RDF><cc:Work
       rdf:about=""><dc:format>image/svg+xml</dc:format><dc:type
         rdf:resource="http://purl.org/dc/dcmitype/StillImage" /></cc:Work></rdf:RDF></metadata><defs
   id="defs44" /><sodipodi:namedview
   pagecolor="#ffffff"
   bordercolor="#666666"
   borderopacity="1"
   objecttolerance="10"
   gridtolerance="10"
   guidetolerance="10"
   inkscape:pageopacity="0"
   inkscape:pageshadow="2"
   inkscape:window-width="1295"
   inkscape:window-height="843"
   id="namedview42"
   showgrid="false"
   inkscape:zoom="0.38562092"
   inkscape:cx="-164.66949"
   inkscape:cy="306"
   inkscape:window-x="72"
   inkscape:window-y="27"
   inkscape:window-maximized="0"
   inkscape:current-layer="Capa_1" />
<g
   id="g9"
   style="fill:#d40000;fill-opacity:0.42105263">
	<g
   id="g7"
   style="fill:#d40000;fill-opacity:0.42105263">
		<g
   id="Cancel"
   style="fill:#d40000;fill-opacity:0.42105263">
			<g
   id="g4"
   style="fill:#d40000;fill-opacity:0.42105263">
				<path
   d="M306,0C136.992,0,0,136.992,0,306c0,168.988,136.992,306,306,306s306-137.012,306-306C612,136.992,475.008,0,306,0z       M306,535.5C179.45,535.5,76.5,432.55,76.5,306c0-49.515,15.912-95.281,42.687-132.804l319.636,319.636      C401.281,519.588,355.515,535.5,306,535.5z M492.832,438.804L173.196,119.187C210.719,92.412,256.485,76.5,306,76.5      c126.55,0,229.5,102.95,229.5,229.5C535.5,355.515,519.588,401.281,492.832,438.804z"
   id="path2"
   style="fill:#d40000;fill-opacity:0.42105263" />
			</g>
		</g>
	</g>
</g>
<g
   id="g11">
</g>
<g
   id="g13">
</g>
<g
   id="g15">
</g>
<g
   id="g17">
</g>
<g
   id="g19">
</g>
<g
   id="g21">
</g>
<g
   id="g23">
</g>
<g
   id="g25">
</g>
<g
   id="g27">
</g>
<g
   id="g29">
</g>
<g
   id="g31">
</g>
<g
   id="g33">
</g>
<g
   id="g35">
</g>
<g
   id="g37">
</g>
<g
   id="g39">
</g>
</svg>