<?xml version="1.0" encoding="UTF-8" standalone="no"?>
<!-- Generator: Adobe Illustrator 16.0.0, SVG Export Plug-In . SVG Version: 6.00 Build 0)  -->

<svg
   xmlns:dc="http://purl.org/dc/elements/1.1/"
   xmlns:cc="http://creativecommons.org/ns#"
   xmlns:rdf="http://www.w3.org/1999/02/22-rdf-syntax-ns#"
   xmlns:svg="http://www.w3.org/2000/svg"
   xmlns="http://www.w3.org/2000/svg"
   xmlns:sodipodi="http://sodipodi.sourceforge.net/DTD/sodipodi-0.dtd"
   xmlns:inkscape="http://www.inkscape.org/namespaces/inkscape"
   version="1.1"
   id="Capa_1"
   x="0px"
   y="0px"
   width="15.999999"
   height="15.999999"
   viewBox="0 0 15.999999 15.999999"
   xml:space="preserve"
   sodipodi:docname="exclude.svg"
   inkscape:version="0.92.5 (2060ec1f9f, 2020-04-08)"><metadata
   id="metadata46"><rdf:RDF><cc:Work
       rdf:about=""><dc:format>image/svg+xml</dc:format><dc:type
         rdf:resource="http://purl.org/dc/dcmitype/StillImage" /></cc:Work></rdf:RDF></metadata><defs
   id="defs44" /><sodipodi:namedview
   pagecolor="#ffffff"
   bordercolor="#666666"
   borderopacity="1"
   objecttolerance="10"
   gridtolerance="10"
   guidetolerance="10"
   inkscape:pageopacity="0"
   inkscape:pageshadow="2"
   inkscape:window-width="1848"
   inkscape:window-height="1016"
   id="namedview42"
   showgrid="false"
   inkscape:zoom="6.1699346"
   inkscape:cx="-2.9173028"
   inkscape:cy="-5.9322427"
   inkscape:window-x="72"
   inkscape:window-y="27"
   inkscape:window-maximized="1"
   inkscape:current-layer="Capa_1" />
<g
   id="g9"
   style="fill:#d40000;fill-opacity:0.42105264"
   transform="scale(0.02614379)">
	<g
   id="g7"
   style="fill:#d40000;fill-opacity:0.42105264">
		<g
   id="Cancel"
   style="fill:#d40000;fill-opacity:0.42105264">
			<g
   id="g4"
   style="fill:#d40000;fill-opacity:0.42105264">
				<path
   d="M 306,0 C 136.992,0 0,136.992 0,306 0,474.988 136.992,612 306,612 475.008,612 612,474.988 612,306 612,136.992 475.008,0 306,0 Z m 0,535.5 C 179.45,535.5 76.5,432.55 76.5,306 c 0,-49.515 15.912,-95.281 42.687,-132.804 L 438.823,492.832 C 401.281,519.588 355.515,535.5 306,535.5 Z M 492.832,438.804 173.196,119.187 C 210.719,92.412 256.485,76.5 306,76.5 c 126.55,0 229.5,102.95 229.5,229.5 0,49.515 -15.912,95.281 -42.668,132.804 z"
   id="path2"
   style="fill:#d40000;fill-opacity:0.42105264"
   inkscape:connector-curvature="0" />
			</g>
		</g>
	</g>
</g>
<g
   id="g11"
   transform="translate(0,-596)">
</g>
<g
   id="g13"
   transform="translate(0,-596)">
</g>
<g
   id="g15"
   transform="translate(0,-596)">
</g>
<g
   id="g17"
   transform="translate(0,-596)">
</g>
<g
   id="g19"
   transform="translate(0,-596)">
</g>
<g
   id="g21"
   transform="translate(0,-596)">
</g>
<g
   id="g23"
   transform="translate(0,-596)">
</g>
<g
   id="g25"
   transform="translate(0,-596)">
</g>
<g
   id="g27"
   transform="translate(0,-596)">
</g>
<g
   id="g29"
   transform="translate(0,-596)">
</g>
<g
   id="g31"
   transform="translate(0,-596)">
</g>
<g
   id="g33"
   transform="translate(0,-596)">
</g>
<g
   id="g35"
   transform="translate(0,-596)">
</g>
<g
   id="g37"
   transform="translate(0,-596)">
</g>
<g
   id="g39"
   transform="translate(0,-596)">
</g>
</svg>