<?xml version="1.0" encoding="UTF-8" standalone="no"?>
<svg
   xmlns:dc="http://purl.org/dc/elements/1.1/"
   xmlns:cc="http://creativecommons.org/ns#"
   xmlns:rdf="http://www.w3.org/1999/02/22-rdf-syntax-ns#"
   xmlns:svg="http://www.w3.org/2000/svg"
   xmlns="http://www.w3.org/2000/svg"
   xmlns:sodipodi="http://sodipodi.sourceforge.net/DTD/sodipodi-0.dtd"
   xmlns:inkscape="http://www.inkscape.org/namespaces/inkscape"
   version="1"
   viewBox="0 0 24 24"
   enable-background="new 0 0 24 24"
   id="svg4"
   sodipodi:docname="InputDirectionCapacity.svg"
   inkscape:version="0.92.5 (2060ec1f9f, 2020-04-08)">
  <metadata
     id="metadata10">
    <rdf:RDF>
      <cc:Work
         rdf:about="">
        <dc:format>image/svg+xml</dc:format>
        <dc:type
           rdf:resource="http://purl.org/dc/dcmitype/StillImage" />
      </cc:Work>
    </rdf:RDF>
  </metadata>
  <defs
     id="defs8" />
  <sodipodi:namedview
     pagecolor="#ffffff"
     bordercolor="#666666"
     borderopacity="1"
     objecttolerance="10"
     gridtolerance="10"
     guidetolerance="10"
     inkscape:pageopacity="0"
     inkscape:pageshadow="2"
     inkscape:window-width="924"
     inkscape:window-height="1016"
     id="namedview6"
     showgrid="false"
     inkscape:zoom="9.8333333"
     inkscape:cx="12.33402"
     inkscape:cy="6.5756619"
     inkscape:window-x="996"
     inkscape:window-y="27"
     inkscape:window-maximized="0"
     inkscape:current-layer="svg4" />
  <path
     inkscape:connector-curvature="0"
     d="M 7.1186236,19.876473 H 1.1690747 c -0.28827801,0 -0.52194066,-0.248197 -0.52194066,-0.554408 v -6.31962 c 0,-0.306213 0.23366265,-0.55441 0.52194066,-0.55441 h 5.9495489 c 0.2882825,0 0.5219455,0.248197 0.5219455,0.55441 v 6.31962 c 0,0.306211 -0.233663,0.554408 -0.5219455,0.554408 z"
     id="path2"
     style="fill:#ffcc00;stroke-width:0.06158768"
     sodipodi:nodetypes="sssssssss" />
  <path
     inkscape:connector-curvature="0"
     d="M 15.051994,19.876473 H 9.1024448 c -0.2882782,0 -0.5219411,-0.248197 -0.5219411,-0.554408 v -6.31962 c 0,-0.306213 0.2336629,-0.55441 0.5219411,-0.55441 h 5.9495492 c 0.28828,0 0.521943,0.248197 0.521943,0.55441 v 6.31962 c -1.36e-4,0.306211 -0.233663,0.554408 -0.521943,0.554408 z"
     id="path4"
     style="fill:#ffcc00;stroke-width:0.06158768"
     sodipodi:nodetypes="ssssssscs" />
  <path
     inkscape:connector-curvature="0"
     d="M 15.051994,11.450271 H 9.1024448 c -0.2882782,0 -0.5219411,-0.248197 -0.5219411,-0.554408 V 4.5762424 c 0,-0.3062118 0.2336629,-0.5544089 0.5219411,-0.5544089 h 5.9495492 c 0.28828,0 0.521943,0.2481971 0.521943,0.5544089 v 6.3196206 c -1.36e-4,0.306211 -0.233663,0.554408 -0.521943,0.554408 z"
     id="path6"
     style="fill:#ffcc00;stroke-width:0.06158768"
     sodipodi:nodetypes="ssssssscs" />
  <path
     inkscape:connector-curvature="0"
     d="M 22.983568,19.876473 H 17.03402 c -0.288279,0 -0.521943,-0.248197 -0.521943,-0.554408 v -6.31962 c 0,-0.306213 0.233664,-0.55441 0.521943,-0.55441 h 5.949548 c 0.288282,0 0.521945,0.248197 0.521945,0.55441 v 6.31962 c 0,0.306211 -0.233663,0.554408 -0.521945,0.554408 z"
     id="path8"
     style="fill:#ffcc00;stroke-width:0.06158768"
     sodipodi:nodetypes="sssssssss" />
  <path
     inkscape:connector-curvature="0"
     d="m 11.08531,8.2911595 c -0.133522,0 -0.267043,-0.05405 -0.368816,-0.1621567 -0.204017,-0.21646 -0.204017,-0.5673007 -4.11e-4,-0.7840336 L 11.707216,6.2911696 C 11.80502,6.187034 11.937844,6.128518 12.076265,6.128518 h 1.37e-4 c 0.138422,0 0.271011,0.058516 0.369048,0.1624037 l 0.990896,1.0525293 c 0.203783,0.2164609 0.203783,0.5675495 0,0.7840336 -0.203785,0.2164609 -0.534315,0.2164609 -0.738122,0 L 12.076629,7.467226 11.454557,8.1287558 C 11.352784,8.2368581 11.21903,8.2911595 11.085275,8.2911595 Z"
     id="path10"
     style="fill:#000000;stroke-width:0.06158768" />
  <path
     inkscape:connector-curvature="0"
     d="m 12.077279,17.76913 c -0.133288,0 -0.266571,-0.05406 -0.368582,-0.161911 L 10.71595,16.555197 c -0.204018,-0.216204 -0.204483,-0.567053 -9.22e-4,-0.784032 0.203547,-0.216708 0.533848,-0.217203 0.738122,-10e-4 l 0.624165,0.661275 0.623027,-0.66102 c 0.204019,-0.21646 0.534314,-0.216206 0.738122,4.4e-4 0.203545,0.216707 0.203545,0.567547 -4.11e-4,0.784033 l -0.991611,1.052021 c -0.102239,0.108081 -0.235528,0.162136 -0.369048,0.162136 z"
     id="path12"
     style="fill:#000000;stroke-width:0.06158768" />
  <path
     inkscape:connector-curvature="0"
     d="m 20.010647,17.76913 c -0.133521,0 -0.267044,-0.05406 -0.369049,-0.162405 -0.203783,-0.21646 -0.203783,-0.567549 0,-0.784034 l 0.621595,-0.66026 -0.622789,-0.660767 c -0.204018,-0.216459 -0.204018,-0.567301 -5.67e-4,-0.784033 0.203784,-0.216707 0.534081,-0.216707 0.738121,-4.39e-4 l 0.99209,1.052784 c 0.09804,0.103889 0.153127,0.244971 0.153127,0.392004 0,0.14703 -0.05485,0.288115 -0.152895,0.392251 l -0.990894,1.052529 c -0.101771,0.108103 -0.235294,0.162406 -0.368814,0.162406 z"
     id="path14"
     style="fill:#000000;stroke-width:0.06158768" />
  <path
     inkscape:connector-curvature="0"
     d="m 4.1439126,17.76913 c -0.1335233,0 -0.2670467,-0.05406 -0.368818,-0.162158 L 2.7830052,16.554188 C 2.6849682,16.4503 2.629878,16.309215 2.629878,16.162184 c 0,-0.147031 0.054853,-0.288115 0.1528958,-0.392252 l 0.9908944,-1.052529 c 0.2037815,-0.216459 0.5343129,-0.216459 0.7381202,0 0.2038082,0.21646 0.2037861,0.567549 0,0.784034 l -0.6215923,0.660259 0.6227872,0.660766 c 0.2040176,0.216461 0.2040176,0.567301 4.104e-4,0.784034 -0.1022379,0.10835 -0.2359927,0.162652 -0.3695115,0.162652 z"
     id="path16"
     style="fill:#000000;stroke-width:0.06158768" />
</svg>
