<?xml version="1.0" encoding="UTF-8" standalone="no"?>
<svg
   xmlns:dc="http://purl.org/dc/elements/1.1/"
   xmlns:cc="http://creativecommons.org/ns#"
   xmlns:rdf="http://www.w3.org/1999/02/22-rdf-syntax-ns#"
   xmlns:svg="http://www.w3.org/2000/svg"
   xmlns="http://www.w3.org/2000/svg"
   xmlns:sodipodi="http://sodipodi.sourceforge.net/DTD/sodipodi-0.dtd"
   xmlns:inkscape="http://www.inkscape.org/namespaces/inkscape"
   version="1.1"
   id="mdi-state-machine"
   width="24"
   height="24"
   viewBox="0 0 24 24"
   sodipodi:docname="state_machine_icon_137150.svg"
   inkscape:version="0.92.5 (2060ec1f9f, 2020-04-08)">
  <metadata
     id="metadata9">
    <rdf:RDF>
      <cc:Work
         rdf:about="">
        <dc:format>image/svg+xml</dc:format>
        <dc:type
           rdf:resource="http://purl.org/dc/dcmitype/StillImage" />
      </cc:Work>
    </rdf:RDF>
  </metadata>
  <defs
     id="defs7" />
  <sodipodi:namedview
     pagecolor="#ffffff"
     bordercolor="#666666"
     borderopacity="1"
     objecttolerance="10"
     gridtolerance="10"
     guidetolerance="10"
     inkscape:pageopacity="0"
     inkscape:pageshadow="2"
     inkscape:window-width="1848"
     inkscape:window-height="1016"
     id="namedview5"
     showgrid="false"
     inkscape:zoom="9.8333333"
     inkscape:cx="12"
     inkscape:cy="12"
     inkscape:window-x="72"
     inkscape:window-y="27"
     inkscape:window-maximized="1"
     inkscape:current-layer="mdi-state-machine" />
  <path
     d="M6.27 17.05C6.72 17.58 7 18.25 7 19C7 20.66 5.66 22 4 22S1 20.66 1 19 2.34 16 4 16C4.18 16 4.36 16 4.53 16.05L7.6 10.69L5.86 9.7L9.95 8.58L11.07 12.67L9.33 11.68L6.27 17.05M20 16C18.7 16 17.6 16.84 17.18 18H11V16L8 19L11 22V20H17.18C17.6 21.16 18.7 22 20 22C21.66 22 23 20.66 23 19S21.66 16 20 16M12 8C12.18 8 12.36 8 12.53 7.95L15.6 13.31L13.86 14.3L17.95 15.42L19.07 11.33L17.33 12.32L14.27 6.95C14.72 6.42 15 5.75 15 5C15 3.34 13.66 2 12 2S9 3.34 9 5 10.34 8 12 8Z"
     id="path2"
     style="fill:#ffcc00" />
</svg>
